<svg version="1.1" id="Layer_1" xmlns="http://www.w3.org/2000/svg" xmlns:xlink="http://www.w3.org/1999/xlink" x="0px" y="0px"
	 width="100%" viewBox="0 0 1200 1200" enable-background="new 0 0 1200 1200" xml:space="preserve">
<path fill="#FFFFFF" opacity="1.000000" stroke="none" 
	d="
M1.000000,444.000000 
	C1.000000,297.500000 1.016747,151.499985 0.905956,5.500072 
	C0.903110,1.750602 1.750933,0.906086 5.500023,0.907022 
	C402.500000,1.006185 799.500000,1.006186 1196.500000,0.907022 
	C1200.249023,0.906086 1201.093994,1.750933 1201.093140,5.500023 
	C1200.993896,402.500000 1200.993896,799.500000 1201.093140,1196.500000 
	C1201.093994,1200.249023 1200.249023,1201.093994 1196.500000,1201.093018 
	C799.500000,1200.993896 402.500000,1200.993896 5.500024,1201.093140 
	C1.750934,1201.093994 0.905109,1200.249146 0.906652,1196.500000 
	C1.009793,945.833313 1.000000,695.166687 1.000000,444.000000 
z"/>
<path fill="#131313" opacity="1.000000" stroke="none" 
	d="
M619.681763,22.021965 
	C621.736084,23.322733 623.613708,22.973837 625.420166,22.998718 
	C642.814453,23.238342 659.991028,25.537054 677.210693,27.846207 
	C699.380432,30.819155 721.202637,35.278549 742.777100,41.029110 
	C765.134399,46.988323 787.042480,54.316574 808.559448,62.862423 
	C825.313354,69.516518 841.788635,76.774612 857.799255,85.024971 
	C887.983643,100.579224 916.800720,118.309692 943.723083,139.110168 
	C960.341248,151.949478 976.125183,165.673904 991.655701,179.804260 
	C1003.450500,190.535782 1014.272278,202.133514 1025.031372,213.770081 
	C1042.838257,233.029144 1058.995483,253.704285 1073.758545,275.407013 
	C1086.183350,293.672363 1097.437866,312.635834 1107.773193,332.190674 
	C1121.175415,357.548798 1132.330933,383.836334 1141.929565,410.809998 
	C1148.991821,430.655884 1154.949097,450.866638 1159.621216,471.395050 
	C1163.140137,486.855957 1166.197632,502.437042 1168.167603,518.220093 
	C1168.660400,522.167236 1168.723877,526.068848 1169.026001,529.989441 
	C1169.505005,536.205322 1166.014282,540.022034 1161.228027,542.909180 
	C1156.401978,545.820190 1151.331909,545.759277 1146.539429,542.797729 
	C1141.754395,539.840698 1139.127686,535.885315 1138.828003,529.741394 
	C1138.258545,518.068909 1135.812866,506.570831 1133.527588,495.115051 
	C1128.962769,472.233063 1123.354980,449.586945 1115.900269,427.471405 
	C1111.495361,414.403473 1106.508179,401.506927 1101.206421,388.773224 
	C1096.204346,376.759064 1090.853760,364.851898 1084.943848,353.261017 
	C1069.518555,323.008392 1051.707886,294.234253 1030.913696,267.311279 
	C1017.976013,250.560318 1004.376709,234.451172 989.777222,219.103943 
	C973.677002,202.179123 956.086121,187.042389 937.989014,172.352570 
	C917.956604,156.091812 896.745300,141.540344 874.618530,128.431671 
	C854.282471,116.383896 833.110107,105.866150 811.306824,96.527481 
	C781.515198,83.767281 750.864197,73.797127 719.420471,66.314384 
	C704.166077,62.684254 688.676941,59.953285 673.072327,57.894302 
	C654.863953,55.491768 636.652710,53.778629 618.301758,52.724861 
	C604.513733,51.933117 590.751221,51.790592 577.032532,52.199604 
	C560.662842,52.687649 544.249084,53.999958 528.013000,56.152050 
	C500.615112,59.783642 473.491852,64.968147 446.826050,72.522858 
	C416.138611,81.216934 386.407928,92.301086 357.633667,106.025719 
	C336.087677,116.302605 315.435760,128.118011 295.353180,141.026932 
	C277.740631,152.348099 260.992432,164.826096 244.742004,177.946991 
	C234.126297,186.518326 224.202148,195.951721 214.076691,205.125153 
	C202.786850,215.353500 192.771378,226.718750 182.736938,238.020935 
	C168.064957,254.546524 154.598022,272.120575 142.197510,290.448273 
	C129.817932,308.744995 118.452042,327.643402 108.212753,347.249023 
	C95.762413,371.088257 85.377739,395.767181 76.409378,421.092529 
	C67.146416,447.249756 60.385136,474.081665 55.200974,501.280731 
	C53.502457,510.192108 52.053078,519.230469 51.753731,528.475708 
	C51.456795,537.646301 45.073441,543.168762 36.165104,543.904846 
	C29.091988,544.489380 20.566683,537.144348 20.197712,529.821899 
	C19.940269,524.712769 21.104462,519.473145 22.063328,514.372620 
	C24.929512,499.126526 27.563894,483.816498 31.096018,468.720306 
	C38.096428,438.800781 47.656208,409.663116 59.328251,381.226166 
	C65.316261,366.637421 71.768501,352.257568 78.999176,338.246399 
	C94.572838,308.068512 112.288048,279.247467 133.076706,252.321411 
	C146.011368,235.568069 159.855515,219.668442 174.114685,204.028030 
	C184.858398,192.243576 196.396271,181.344284 208.099655,170.675095 
	C227.573013,152.922516 248.277893,136.631668 270.202179,121.874397 
	C288.294891,109.696152 306.893250,98.490341 326.163605,88.293449 
	C351.791840,74.732300 378.375519,63.531479 405.704193,53.884171 
	C425.442505,46.916363 445.484100,41.010445 465.801300,36.242992 
	C481.223419,32.624168 496.865631,29.778374 512.665222,27.833361 
	C524.496643,26.376852 536.317871,25.037163 548.183960,23.872782 
	C571.837402,21.551746 595.521240,22.127867 619.681763,22.021965 
z"/>
<path fill="#131313" opacity="1.000000" stroke="none" 
	d="
M86.260750,877.676392 
	C80.167786,865.545654 74.098053,853.820557 68.476311,841.884460 
	C60.741627,825.462402 54.188602,808.537476 48.125973,791.433594 
	C41.033947,771.425476 35.073132,751.047974 30.295219,730.389709 
	C26.760626,715.107300 23.577808,699.691528 21.989483,684.025208 
	C21.511570,679.311279 19.398993,674.810425 20.925156,669.839111 
	C23.075224,662.835449 28.084648,659.037476 34.804504,658.161926 
	C41.277767,657.318359 46.178829,661.007812 49.716164,666.291992 
	C52.340794,670.212646 51.184212,674.930115 51.781910,679.200806 
	C55.059166,702.617371 60.005333,725.663086 66.191772,748.439270 
	C72.086266,770.140503 79.442482,791.406433 88.153107,812.118469 
	C96.258949,831.392334 105.304497,850.246338 115.659904,868.491028 
	C123.064919,881.537537 130.745132,894.392578 139.060593,906.842041 
	C150.061554,923.312012 162.060364,939.050293 174.669449,954.361023 
	C185.037048,966.950134 195.769333,979.243347 207.381836,990.580566 
	C227.620544,1010.339539 249.222977,1028.586914 272.278992,1045.108765 
	C294.361176,1060.932617 317.325562,1075.213135 341.366547,1087.848511 
	C365.456970,1100.509766 390.473480,1110.946777 416.108215,1119.981079 
	C441.813751,1129.040161 468.189117,1135.713623 494.911957,1140.763306 
	C507.336609,1143.110962 519.927490,1144.945435 532.596069,1146.153442 
	C545.679993,1147.401001 558.769653,1148.264282 571.860718,1149.257080 
	C585.654724,1150.303345 599.413635,1150.206299 613.131531,1149.799805 
	C629.500305,1149.314575 645.919617,1148.034424 662.147766,1145.844482 
	C691.930481,1141.825806 721.399963,1136.121460 750.267090,1127.424194 
	C778.321350,1118.971802 805.591370,1108.673950 832.046692,1096.065796 
	C853.751587,1085.721558 874.569763,1073.912231 894.735352,1060.842773 
	C915.756165,1047.218994 935.730164,1032.259399 954.689392,1015.896851 
	C960.916260,1010.522827 966.865112,1004.823486 973.151184,999.559998 
	C981.560181,992.519043 988.604004,984.235107 996.071716,976.342163 
	C1010.454529,961.140259 1023.522278,944.826477 1036.011353,928.039490 
	C1047.105591,913.127197 1057.357788,897.657776 1066.799683,881.660400 
	C1077.683228,863.220276 1087.603394,844.301941 1096.228882,824.656311 
	C1103.210815,808.753967 1109.682495,792.679504 1115.210449,776.247620 
	C1121.105835,758.723267 1126.045288,740.917603 1130.126709,722.848816 
	C1133.086060,709.747803 1135.130127,696.496277 1137.790527,683.352478 
	C1138.729370,678.715027 1137.315308,673.849121 1138.980469,669.182068 
	C1142.048706,660.582825 1151.538452,655.834045 1159.593994,659.259155 
	C1166.824829,662.333618 1167.506958,669.391785 1167.817627,675.636292 
	C1168.494507,689.236877 1165.611206,702.611877 1162.857788,715.832886 
	C1158.003906,739.140747 1151.857544,762.134155 1144.074951,784.673523 
	C1136.572388,806.402344 1128.088379,827.686523 1118.306030,848.523315 
	C1106.359131,873.970520 1092.548584,898.290344 1077.005981,921.655579 
	C1065.943726,938.285400 1053.970703,954.234253 1041.105347,969.542236 
	C1033.052979,979.123474 1024.379517,988.129639 1016.215942,997.570312 
	C1005.769470,1009.650940 993.929138,1020.232849 982.280090,1030.976196 
	C962.882874,1048.865601 942.111084,1065.144043 920.244690,1079.965576 
	C902.088501,1092.272217 883.301514,1103.494751 863.866699,1113.711060 
	C838.202759,1127.201904 811.647583,1138.456177 784.323853,1148.109741 
	C764.588806,1155.082153 744.542542,1160.958740 724.230286,1165.754639 
	C708.971436,1169.357178 693.473206,1172.057495 677.867004,1174.119385 
	C659.823181,1176.503174 641.771362,1178.130249 623.597290,1179.250488 
	C606.476929,1180.305908 589.374695,1180.321289 572.335449,1179.725098 
	C557.657776,1179.211426 542.945251,1177.868042 528.268188,1176.238403 
	C500.494690,1173.154663 473.162659,1167.978760 446.245117,1160.830444 
	C422.356262,1154.486206 398.937592,1146.493042 376.056000,1137.026855 
	C361.188599,1130.875977 346.479462,1124.373291 332.192047,1116.984741 
	C302.031677,1101.387573 273.198761,1083.690918 246.277969,1062.890869 
	C229.660873,1050.051880 213.877411,1036.328613 198.347626,1022.198914 
	C186.553360,1011.467957 175.711578,999.887817 164.977921,988.231262 
	C147.106918,968.823730 130.857666,948.039856 116.003838,926.194092 
	C105.395248,910.591675 95.568558,894.519104 86.260750,877.676392 
z"/>
<path fill="#131313" opacity="1.000000" stroke="none" 
	d="
M581.812500,132.642731 
	C596.237610,129.752350 610.055969,142.240356 610.052368,157.031876 
	C609.981812,445.328522 609.991394,733.625183 610.026184,1021.921814 
	C610.027893,1035.908691 598.710144,1046.873413 586.113708,1046.937378 
	C573.405273,1047.001953 561.986450,1035.996216 561.987305,1022.149841 
	C562.004150,733.686523 561.999084,445.223236 562.003235,156.759918 
	C562.003418,144.963943 570.931519,134.080597 581.812500,132.642731 
z"/>
<path fill="#131313" opacity="1.000000" stroke="none" 
	d="
M706.000000,705.000000 
	C706.000000,776.148804 706.009338,846.797546 705.991943,917.446350 
	C705.988586,931.154907 694.404724,942.270508 681.596741,941.912109 
	C668.834839,941.555054 658.904480,931.369751 658.006042,918.633972 
	C657.959229,917.970764 658.000000,917.301453 658.000000,916.634949 
	C658.000000,694.524475 658.013184,472.414001 657.968994,250.303528 
	C657.966187,236.217651 668.804199,225.625412 681.159424,225.076462 
	C694.044800,224.503952 705.996521,235.653152 705.997498,249.615311 
	C706.002808,326.929077 706.000000,404.242859 706.000000,481.556641 
	C706.000000,555.871094 706.000000,630.185547 706.000000,705.000000 
z"/>
<path fill="#131313" opacity="1.000000" stroke="none" 
	d="
M754.000000,360.000000 
	C754.000000,346.671051 754.067505,333.841614 753.981750,321.013245 
	C753.888550,307.068115 765.316345,296.093903 777.942932,296.062805 
	C790.633240,296.031586 802.018188,307.030182 802.015991,320.898682 
	C801.990906,479.178009 801.976074,637.457336 802.040771,795.736694 
	C802.046570,810.005188 790.453247,821.071289 777.808228,820.939636 
	C765.235229,820.808777 753.964233,809.873962 753.969055,795.851746 
	C754.019348,650.734497 754.000000,505.617249 754.000000,360.000000 
z"/>
<path fill="#131313" opacity="1.000000" stroke="none" 
	d="
M514.000000,564.000000 
	C514.000000,659.799744 514.003601,755.099426 513.995911,850.399170 
	C513.994812,864.113403 502.442291,875.241211 489.647614,874.912781 
	C476.874908,874.584961 466.941833,864.406494 466.004761,851.688904 
	C465.968109,851.191833 466.000000,850.689575 466.000000,850.189758 
	C466.000000,697.743530 466.000458,545.297302 465.999268,392.851044 
	C465.999146,379.193604 476.675079,368.679413 489.108673,368.081543 
	C502.000549,367.461670 513.987915,378.599121 513.992371,392.559998 
	C514.010620,449.540009 514.000000,506.519989 514.000000,564.000000 
z"/>
<path fill="#131313" opacity="1.000000" stroke="none" 
	d="
M850.000000,514.000000 
	C850.000000,476.683350 850.051208,439.866608 849.973816,403.050140 
	C849.944458,389.081207 861.296204,378.118011 873.901733,378.062836 
	C886.604919,378.007233 898.016174,389.007568 898.013306,402.852875 
	C897.989685,515.635071 897.992737,628.417297 898.009460,741.199524 
	C898.011475,755.015259 886.577454,766.024170 873.849487,765.936707 
	C861.256348,765.850159 849.959167,754.884277 849.970642,740.897644 
	C850.032654,665.431763 850.000000,589.965881 850.000000,514.000000 
z"/>
<path fill="#131313" opacity="1.000000" stroke="none" 
	d="
M274.000000,657.000000 
	C274.000000,611.359985 274.015472,566.220032 273.989441,521.080017 
	C273.982697,509.411407 281.431549,498.789490 294.898865,496.186523 
	C303.519196,494.520386 315.434326,499.617706 320.292755,511.836243 
	C321.358246,514.515869 322.030609,517.327087 322.029266,520.312500 
	C321.992584,601.098083 322.041595,681.883728 321.956848,762.669189 
	C321.943573,775.335449 312.462952,785.423645 299.873016,786.912048 
	C289.804504,788.102295 277.401947,780.298767 274.852844,768.164185 
	C274.376556,765.897156 274.005829,763.713257 274.005310,761.438660 
	C273.997650,726.792419 274.000000,692.146240 274.000000,657.000000 
z"/>
<path fill="#131313" opacity="1.000000" stroke="none" 
	d="
M370.000000,672.000000 
	C370.000000,603.052673 370.027039,534.605347 369.972321,466.158020 
	C369.963623,455.254028 377.011414,443.639740 390.903656,441.145386 
	C399.166443,439.661774 411.178711,444.439087 416.109283,456.412659 
	C417.294525,459.290985 418.010437,462.199524 418.009918,465.319336 
	C417.997253,542.759766 418.026245,620.200134 417.975067,697.640564 
	C417.966187,711.078308 406.693939,721.972656 393.920288,721.928406 
	C381.212860,721.884399 370.080780,710.994934 370.008301,697.480652 
	C369.963654,689.153992 370.000000,680.826904 370.000000,672.000000 
z"/>
<path fill="#131313" opacity="1.000000" stroke="none" 
	d="
M178.000000,676.000000 
	C178.000000,618.704590 178.016785,561.909180 177.986130,505.113770 
	C177.979858,493.490051 185.385681,482.829010 198.863708,480.192566 
	C207.430634,478.516785 219.449417,483.615356 224.271515,495.806152 
	C225.334305,498.493011 226.027771,501.291443 226.026291,504.272491 
	C225.992203,572.726807 226.028809,641.181091 225.975327,709.635376 
	C225.964828,723.075745 214.695374,733.971863 201.921539,733.928467 
	C189.214584,733.885193 178.069977,722.995239 178.009933,709.477905 
	C177.961090,698.485474 178.000000,687.492676 178.000000,676.000000 
z"/>
<path fill="#131313" opacity="1.000000" stroke="none" 
	d="
M946.000000,544.000000 
	C946.000000,525.014404 945.852844,506.527191 946.049194,488.043640 
	C946.191345,474.658997 957.551636,463.766571 970.393555,464.093628 
	C983.152710,464.418610 993.806458,474.608398 993.873413,487.336853 
	C994.167114,543.125244 994.175415,598.917053 993.861633,654.705200 
	C993.793457,666.829895 984.493469,676.445129 971.839722,677.885681 
	C961.191833,679.097900 949.806519,671.093811 946.897766,659.637817 
	C946.193481,656.863770 946.009521,654.181091 946.008545,651.416687 
	C945.995667,615.777771 946.000000,580.138916 946.000000,544.000000 
z"/>
<path fill="#03193F" opacity="1.000000" stroke="none" 
	d="
M1042.001221,599.252502 
	C1043.760498,589.673035 1048.425415,582.729370 1056.945190,578.503479 
	C1071.088379,571.488403 1088.273804,581.444214 1091.245972,596.976562 
	C1094.411621,613.519836 1078.419312,626.771179 1066.213135,625.989929 
	C1053.467529,625.174133 1041.724487,614.102600 1042.001221,599.252502 
z"/>
<path fill="#03193F" opacity="1.000000" stroke="none" 
	d="
M101.796837,576.416992 
	C111.479500,574.517395 124.351974,581.736450 128.057053,592.588379 
	C128.023941,593.821655 127.956642,594.687805 128.635788,595.741394 
	C131.222031,605.655090 127.786659,613.331238 120.433289,619.913452 
	C117.604996,621.551025 113.886261,620.860596 112.211060,624.552612 
	C108.261436,625.358398 104.570000,627.286377 100.372986,625.019287 
	C99.324417,624.195679 98.507683,623.991943 97.280487,624.083313 
	C81.789978,619.375854 71.912209,597.274658 89.568939,582.084473 
	C92.480385,580.598083 95.675934,580.326172 97.788727,577.438232 
	C98.447166,577.116394 98.893547,577.066223 99.670479,577.091309 
	C100.700844,577.539551 101.192764,577.249634 101.796837,576.416992 
z"/>
<path fill="#03193F" opacity="1.000000" stroke="none" 
	d="
M112.353043,624.815796 
	C111.678131,619.099304 115.884895,620.188843 119.685051,620.030396 
	C118.412529,622.822693 114.963638,622.882019 112.353043,624.815796 
z"/>
<path fill="#03193F" opacity="1.000000" stroke="none" 
	d="
M97.646957,577.184204 
	C97.367783,581.515747 93.883514,581.531189 90.285004,581.968872 
	C91.587471,579.177307 95.036362,579.117981 97.646957,577.184204 
z"/>
<path fill="#03193F" opacity="1.000000" stroke="none" 
	d="
M128.909180,595.656982 
	C127.136612,595.703918 126.610733,594.859802 127.843613,593.135071 
	C129.351440,593.387695 128.902832,594.449219 128.909180,595.656982 
z"/>
<path fill="#03193F" opacity="1.000000" stroke="none" 
	d="
M97.101761,624.432495 
	C97.970512,622.807129 98.955055,622.532227 99.941895,624.515259 
	C99.082275,624.806152 98.164703,624.778992 97.101761,624.432495 
z"/>
<path fill="#03193F" opacity="1.000000" stroke="none" 
	d="
M101.703827,576.138489 
	C101.836334,576.918884 101.889084,577.855164 101.449326,578.374023 
	C100.964684,578.945801 100.357773,578.435913 100.053055,577.463562 
	C100.469658,576.814514 100.938301,576.462402 101.703827,576.138489 
z"/>
</svg>